<svg width="12" height="12" viewBox="0 0 12 12" fill="none" xmlns="http://www.w3.org/2000/svg">
<path d="M5.57143 2.57143H6.42857V5.14286H5.57143V2.57143ZM5.57143 6.85714H6.42857V9.42857H5.57143V6.85714ZM6.85714 5.57143H9.42857V6.42857H6.85714V5.57143ZM2.57143 5.57143H5.14286V6.42857H2.57143V5.57143ZM0.857143 3.42857H0V0.857143C0.000226919 0.629884 0.0906056 0.411998 0.251302 0.251302C0.411998 0.0906056 0.629884 0.000226919 0.857143 0H3.42857V0.857143H0.857143V3.42857ZM3.42857 12H0.857143C0.629884 11.9998 0.411998 11.9094 0.251302 11.7487C0.0906056 11.588 0.000226919 11.3701 0 11.1429V8.57143H0.857143V11.1429H3.42857V12ZM11.1429 12H8.57143V11.1429H11.1429V8.57143H12V11.1429C11.9998 11.3701 11.9094 11.588 11.7487 11.7487C11.588 11.9094 11.3701 11.9998 11.1429 12ZM12 3.42857H11.1429V0.857143H8.57143V0H11.1429C11.3701 0.000226919 11.588 0.0906056 11.7487 0.251302C11.9094 0.411998 11.9998 0.629884 12 0.857143V3.42857Z" fill="black"/>
</svg>
